<?xml version="1.0" encoding="UTF-8" standalone="no"?>
<!-- Created with Inkscape (http://www.inkscape.org/) -->
<svg
   xmlns:svg="http://www.w3.org/2000/svg"
   xmlns="http://www.w3.org/2000/svg"
   xmlns:xlink="http://www.w3.org/1999/xlink"
   version="1.0"
   width="600"
   height="400"
   id="svg2">
  <defs
     id="defs5" />
  <rect
     width="600"
     height="400"
     x="0"
     y="0"
     style="opacity:1;fill:#d40000;fill-opacity:1;stroke:none;stroke-width:2.32975173;stroke-linecap:round;stroke-miterlimit:4;stroke-dasharray:none;stroke-dashoffset:0;stroke-opacity:1"
     id="rect2938" />
  <path
     d="M 165,0 L 165,140 L 0,140 L 0,260 L 165,260 L 165,400 L 285,400 L 285,260 L 600,260 L 600,140 L 285,140 L 285,0 L 165,0 L 165,0 L 165,0 z "
     style="fill:#ffffff;fill-opacity:1;fill-rule:evenodd;stroke:none;stroke-width:1.16487586px;stroke-linecap:butt;stroke-linejoin:miter;stroke-opacity:1"
     id="path2940" />
  <path
     d="M 0,225 L 200,225 L 200,400 L 250,400 L 250,225 L 600,225 L 600,175 L 250,175 L 250,0 L 200,0 L 200,175 L 0,175 L 0,225 L 0,225 L 0,225 z "
     style="fill:#00a600;fill-opacity:1;fill-rule:evenodd;stroke:none;stroke-width:1.16487586px;stroke-linecap:butt;stroke-linejoin:miter;stroke-opacity:1"
     id="path3911" />
  <g
     transform="matrix(-1.1648758,0,0,1.1648758,469.24385,24.357926)"
     id="g2643">
    <g
       id="layer1" />
    <path
       d="M 194.644,26.984677 C 189.03518,27.054182 186.78544,31.675317 183.019,31.859677 C 178.16371,32.097335 175.32984,39.324414 179.519,41.828427 C 186.71721,46.131062 177.44223,60.263135 169.144,66.234677 C 159.43048,73.224686 159.40007,80.030112 165.30025,83.640927 C 173.50415,88.661582 189.68682,75.584422 192.45574,78.566437 C 192.13039,80.17574 180.50861,88.390451 171.769,94.609677 C 168.19004,97.156515 165.67317,99.766215 162.6955,98.294681 C 151.59429,92.808574 136.01675,84.307396 126.8315,85.828427 C 112.92104,88.131925 99.584443,98.516866 94.644003,109.67218 C 96.056313,120.67024 95.638823,120.9928 105.4565,113.17218 C 107.08003,111.87889 105.26545,110.26283 106.5815,108.67218 C 110.7037,103.68985 119.97589,96.873534 127.42525,94.890927 C 140.65991,102.95456 145.95199,110.98893 156.019,118.76593 C 148.20474,127.15798 132.40836,124.27882 128.9565,136.32843 C 123.36989,155.82993 134.66034,177.32481 152.11275,186.51593 C 160.69838,191.03746 153.47137,170.53936 149.42525,171.10968 C 141.79228,162.0673 137.60456,150.13236 142.8315,138.89093 C 155.46917,140.72545 157.7149,138.91142 165.3315,138.57843 C 170.00202,144.27682 175.08781,150.35706 180.0815,155.73468 C 181.90246,157.69565 182.74379,160.33014 180.48775,161.60968 C 174.58177,164.95931 168.50493,168.09023 169.4565,173.98468 C 170.80195,182.31908 189.82849,197.87096 184.42525,201.01593 C 173.386,207.44137 164.76403,218.93865 157.769,230.32843 C 157.76593,240.74418 161.5214,244.59695 162.3315,243.98468 C 163.47679,243.11909 168.31614,238.33385 169.17525,236.51593 C 170.59693,233.50761 167.76737,232.68497 170.3315,229.42218 C 176.80501,221.18475 182.0832,212.44195 191.5815,206.89093 C 196.91941,203.77134 209.81478,199.30985 208.0815,196.54718 C 202.08942,186.9964 208.85716,190.87651 214.8315,193.29718 C 224.48414,210.08307 236.87944,216.54188 246.3315,226.39093 C 253.10915,241.23869 250.69169,261.47306 241.9075,269.59618 C 242.77671,274.99564 243.95255,276.80611 245.269,277.23468 C 251.96178,273.98512 251.3259,274.94393 252.117,273.92643 C 252.97684,272.82051 253.49598,266.10335 254.36275,265.07843 C 263.22932,254.59402 259.65913,223.54799 254.05275,201.98468 C 255.7413,194.32401 257.1039,186.70316 255.55025,177.42218 C 255.38175,176.41563 257.24982,175.7224 258.98775,175.01593 C 268.4401,171.17353 269.74964,148.54461 277.90752,143.04891 C 280.46798,141.32401 280.04489,153.57438 276.82827,157.81845 C 258.95083,181.40631 269.1917,203.6655 284.1647,216.22913 C 288.29478,206.15706 289.0143,198.69264 287.09546,189.54718 C 291.12461,188.7057 288.7254,185.84921 284.83372,174.1327 C 282.56358,167.29812 283.34079,162.56397 284.75948,160.2087 C 294.46362,144.09814 293.07371,130.34564 276.38026,130.27574 C 269.50381,130.24747 262.93609,134.60319 262.8494,152.72237 C 262.82545,157.72891 256.37255,165.61466 251.17525,161.93069 C 241.33482,154.95556 226.90396,142.71633 220.55275,132.88169 C 213.88788,122.56135 220.48531,118.72564 222.18414,119.58027 C 233.64687,125.34686 236.11159,125.55539 236.83426,109.4375 C 241.32098,106.95125 244.64057,103.6366 240.99756,91.453427 C 247.02949,85.187365 248.56685,84.12751 242.73775,73.515927 C 248.63599,66.118879 248.12587,64.866293 239.644,60.203427 C 243.31332,50.351196 242.60516,48.750978 230.79489,47.392767 C 230.66695,38.79335 230.80357,36.869802 219.30485,38.314182 C 218.29972,29.176662 216.03964,29.67185 204.394,31.203427 C 201.10451,27.989555 198.49304,26.93698 194.644,26.984677 z "
       style="fill:#000000;stroke:#000000;stroke-width:3;stroke-miterlimit:4;stroke-dasharray:none;stroke-opacity:1"
       id="path2174" />
    <path
       d="M 195.7065,30.328427 C 194.48503,30.319378 193.2805,30.530993 192.0815,30.734677 C 193.76237,32.786432 193.84432,34.703304 194.5815,36.640927 C 246.87572,47.208663 237.06181,95.815405 194.98775,113.95343 C 229.57978,95.252092 245.55693,51.775354 194.5815,39.515927 C 191.91083,38.873641 185.00653,47.877139 182.61275,53.422177 C 179.62581,60.341219 174.37707,65.200058 168.23775,69.109677 C 163.9666,71.829612 159.70472,78.782874 166.394,81.765927 C 166.99528,81.813462 174.12162,77.534763 174.48775,76.234677 C 174.79205,75.154127 177.0202,76.174471 176.019,77.203427 C 174.60416,78.657475 167.91569,82.829111 167.92525,82.922177 C 170.08902,84.771418 185.44021,76.074652 190.8315,73.953427 C 206.69777,80.124539 214.92563,58.610772 201.5815,50.390927 C 197.30295,47.75539 192.29198,47.854169 193.644,44.453427 C 211.98141,45.480663 216.75033,67.014856 203.5815,75.578427 C 190.88506,83.834809 181.57278,90.352645 166.519,100.82843 C 162.71627,103.47472 142.37703,86.546554 127.144,87.828427 C 113.61242,88.967122 100.80409,99.858572 96.894003,110.73468 C 96.318543,112.33535 97.168413,114.77345 97.894003,115.57843 C 98.018343,115.71637 101.363,113.64243 102.30025,112.67218 C 103.70203,111.22103 102.38189,110.95023 103.42525,109.04718 C 106.41608,103.59206 124.23727,89.518076 129.5815,93.203427 C 137.21081,98.464561 143.1123,103.0965 155.7065,113.67218 C 162.62801,119.48435 161.03444,105.77714 164.894,108.64093 C 167.16662,110.32721 162.3033,118.70859 163.019,118.70343 C 163.99771,118.69638 166.14954,110.33604 170.269,108.60968 C 175.87464,106.2605 177.6795,108.90809 173.269,112.07843 C 166.39319,117.02088 167.52765,120.47802 175.98775,118.67218 C 180.08849,117.79686 182.0333,119.52339 179.2065,120.20343 C 164.09389,123.83904 139.5074,125.2368 133.05025,134.04718 C 121.91204,149.24457 138.40546,181.15115 153.7065,183.51593 C 151.60595,172.4922 149.07136,176.40865 147.269,174.04718 C 139.151,163.41088 134.41277,150.51725 139.98775,137.76593 C 141.23278,134.91825 150.00345,138.3494 159.55025,137.01593 C 165.95952,136.12069 174.42823,133.91787 180.23775,134.35968 C 184.64936,134.69518 198.29591,141.39203 205.48775,140.39093 C 207.56398,140.10192 207.14337,142.59237 205.17525,142.70343 C 197.54474,143.12697 183.98137,137.87792 179.36275,136.51593 C 177.29151,135.90514 179.03111,139.80037 180.144,142.32843 C 181.7061,145.87693 178.62868,147.3081 175.98775,141.64093 C 174.33543,138.09521 167.76935,137.03996 168.17525,138.29718 C 170.8711,146.64709 183.77757,157.41582 193.769,164.64093 C 190.73567,162.37139 188.75533,158.94434 187.67525,154.29718 C 198.1982,158.95689 205.93415,173.04228 218.5815,169.20343 C 209.37505,193.60422 229.1037,208.83282 246.23775,222.29718 C 254.99943,238.05833 254.13441,257.24017 244.36275,269.79718 C 244.01288,270.54839 244.99257,274.98016 245.5815,274.73468 C 247.35479,273.84256 251.16977,273.26836 251.0815,270.51593 C 250.92693,265.69676 256.26962,258.05403 256.67525,254.26593 C 257.77295,244.01489 258.23858,232.56275 255.23775,222.54718 C 247.1006,215.20797 242.28738,207.12935 245.48775,196.79718 C 247.45673,190.44051 257.89153,188.94078 250.0815,163.07843 C 239.43401,155.39435 228.37472,145.91205 219.23775,134.57843 C 217.29867,132.17317 214.37672,131.98207 210.86275,133.20343 C 208.68382,133.96076 208.11681,131.54418 209.5815,131.07843 C 216.79256,128.78544 203.60817,124.50443 215.019,119.82843 C 217.57896,118.7794 224.12086,110.76823 224.8315,112.57843 C 227.36524,119.03253 231.67555,123.02339 233.37531,118.23744 C 235.28364,112.86424 232.16179,103.70633 226.88788,97.473034 C 236.0131,97.2588 235.57823,110.13344 238.50215,104.3704 C 242.64239,96.209997 234.62637,84.840498 233.17525,84.265927 C 236.60706,83.09323 238.73574,83.937797 240.644,87.453427 C 246.40542,85.269211 241.12508,73.356784 235.98775,72.672177 C 235.74018,68.873928 245.38107,72.132995 243.894,66.422177 C 243.0097,63.026153 237.05045,62.756186 233.9565,61.422177 C 235.37287,57.15552 241.7903,55.676645 238.30837,52.133883 C 235.2141,48.985555 232.37864,50.044334 227.99939,50.59007 C 229.89357,41.786637 229.54657,38.157499 217.09314,40.34007 C 216.57664,32.223128 214.00701,31.233647 207.03064,33.549017 C 198.39629,36.414649 202.79622,30.380947 195.7065,30.328427 z M 185.894,34.203427 C 184.35686,34.129212 182.41368,35.272608 180.48775,36.672177 C 183.50541,41.651772 185.94715,41.499932 188.8315,39.015927 C 188.56018,35.581749 187.43114,34.277642 185.894,34.203427 z M 195.3315,53.140927 C 196.52113,52.974474 196.83884,54.340066 195.80025,56.109677 C 194.18794,58.856768 190.76467,59.8334 189.644,55.672177 C 191.67093,52.722735 194.40622,53.270394 195.3315,53.140927 z M 168.25572,73.125299 C 168.18907,73.788897 168.69759,75.47889 167.88529,75.942977 C 167.11914,76.380699 166.03162,76.393894 165.56267,75.728685 C 165.12988,75.114786 167.64195,73.5263 168.25572,73.125299 z M 264.61275,148.48468 C 264.20748,159.2916 260.70146,164.78432 253.67525,164.98468 C 256.01258,174.23544 259.72311,173.98758 262.769,168.54718 C 265.93902,162.88507 267.8588,156.46201 270.36275,149.67218 C 275.90653,134.63939 287.8072,140.38962 278.8315,159.48468 C 265.80817,171.47682 268.49329,197.45931 277.30025,204.45343 C 276.88989,197.02951 270.41206,191.08746 274.519,183.92218 C 275.25633,182.63579 277.63381,186.63031 277.80025,189.67218 C 278.29872,198.7824 279.32902,204.90367 284.019,212.42218 C 285.33331,205.04254 287.36979,198.72929 284.73775,191.54718 C 282.23973,184.73081 276.10429,182.74871 278.019,174.29718 C 278.7914,170.88774 279.94046,173.58229 279.769,176.45343 C 279.53424,180.38462 282.89657,184.59038 286.644,186.85968 C 284.06363,182.8061 280.48887,170.39068 280.3315,163.04718 C 284.78999,155.51194 291.74389,144.12726 287.0815,137.42218 C 279.79009,126.93625 265.19121,133.05933 264.61275,148.48468 z M 174.23775,177.73468 C 177.73313,184.83362 184.72138,190.12868 187.9565,197.23468 C 190.19072,202.14219 183.6539,204.38929 180.394,206.92218 C 171.62227,213.73769 164.97033,222.13945 159.55025,230.76593 C 158.80778,231.94765 161.0533,240.86042 162.30025,240.17218 C 164.04237,239.21065 165.8526,237.53704 166.73775,235.29718 C 167.25791,233.98091 166.05409,232.0051 166.8315,230.64093 C 181.0807,205.637 193.72374,204.20162 204.80025,196.89093 C 199.25536,189.71861 195.11639,182.20223 209.86275,187.10968 C 203.54457,179.81785 196.57859,169.93598 187.67525,166.20343 C 180.2177,163.077 170.29563,169.72844 174.23775,177.73468 z M 200.61275,170.67218 C 199.56533,171.68742 206.49865,175.83923 208.98775,179.51593 C 210.69164,182.03278 212.32663,181.86281 212.42525,180.54718 C 212.98915,173.02467 202.14061,169.19126 200.61275,170.67218 z M 249.17525,197.26593 C 244.78946,198.63506 248.23267,210.08721 251.17525,214.10968 C 255.06103,219.4215 256.89761,215.72541 253.3315,210.26593 C 250.41533,205.80145 253.78845,195.82581 249.17525,197.26593 z "
       style="fill:#ffffff;stroke:none"
       id="path2180" />
    <g
       transform="matrix(-6.3371622e-2,-2.4603732e-3,-2.4603732e-3,6.3371622e-2,115.56336,137.51794)"
       style="fill:#ff0000;fill-opacity:1;stroke-width:12.73320389;stroke-miterlimit:4;stroke-dasharray:none"
       id="g14250" />
    <g
       transform="matrix(-6.3371622e-2,-2.4603732e-3,-2.4603732e-3,6.3371622e-2,115.56336,137.51794)"
       style="fill:#ffffff;fill-opacity:1;stroke-width:12.73320389;stroke-miterlimit:4;stroke-dasharray:none"
       id="g14236" />
    <g
       transform="matrix(-6.3371622e-2,-2.4603732e-3,-2.4603732e-3,6.3371622e-2,115.56336,137.51794)"
       style="fill:#ffffff;fill-opacity:1;stroke-width:12.73320389;stroke-miterlimit:4;stroke-dasharray:none"
       id="g14222" />
    <g
       transform="matrix(-6.3371622e-2,-2.4603732e-3,-2.4603732e-3,6.3371622e-2,115.56336,137.51794)"
       style="fill:#ffffff;fill-opacity:1;stroke-width:12.73320389;stroke-miterlimit:4;stroke-dasharray:none"
       id="g14215" />
    <g
       transform="matrix(-6.3371622e-2,-2.4603732e-3,-2.4603732e-3,6.3371622e-2,115.56336,137.51794)"
       style="fill:#ffffff;fill-opacity:1;stroke-width:12.73320389;stroke-miterlimit:4;stroke-dasharray:none"
       id="g14229" />
    <g
       transform="matrix(-6.3371622e-2,-2.4603732e-3,-2.4603732e-3,6.3371622e-2,115.56336,137.51794)"
       style="fill:#e6e6e6;stroke-width:12.73320389;stroke-miterlimit:4;stroke-dasharray:none"
       id="g14245" />
    <g
       transform="matrix(-6.3371622e-2,-2.4603732e-3,-2.4603732e-3,6.3371622e-2,115.56336,137.51794)"
       id="g14241" />
    <g
       transform="matrix(0.2149717,0,0,0.2159284,331.94615,10.154144)"
       style="stroke:#000000;stroke-width:5.67506933;stroke-miterlimit:4;stroke-dasharray:none;stroke-opacity:1"
       id="Ebene_1">
      <g
         style="stroke:#000000;stroke-width:5.67506933;stroke-miterlimit:4;stroke-dasharray:none;stroke-opacity:1"
         id="g2395">
        <defs
           id="defs2397">
          <path
             d="M 76.518555,185.37305 L 146.73438,184.4668 L 146.73438,304.75781 C 146.73438,304.75781 129.49316,310.89453 112.09717,310.9541 C 94.387695,311.01465 76.518555,304.99805 76.518555,304.99805 L 76.518555,185.37305 L 76.518555,185.37305 z "
             id="XMLID_1_" />
        </defs>
        <clipPath
           id="XMLID_3_">
          <use
             id="use2401"
             x="0"
             y="0"
             width="222.35899"
             height="312.23099"
             xlink:href="#XMLID_1_" />
        </clipPath>
      </g>
    </g>
  </g>
</svg>
